<svg width="287" height="52" viewBox="0 0 287 52" fill="none" xmlns="http://www.w3.org/2000/svg">
<path d="M28.4238 1C28.4238 16.1468 16.1468 28.4238 1 28.4238V1H28.4238Z" fill="#373536"/>
<path d="M51 1.1385H1.13851V51H51V1.1385Z" stroke="#373536" stroke-miterlimit="10"/>
<path d="M1.06093 1.03046L6.48478 51" stroke="#373536" stroke-miterlimit="10"/>
<path d="M1.06093 1.03046L12.0415 51" stroke="#373536" stroke-miterlimit="10"/>
<path d="M1.06093 1.03046L17.867 51" stroke="#373536" stroke-miterlimit="10"/>
<path d="M1.06093 1.03046L24.1357 51" stroke="#373536" stroke-miterlimit="10"/>
<path d="M1.06093 1.03046L31.0665 51" stroke="#373536" stroke-miterlimit="10"/>
<path d="M1.06093 1.03046L39.0859 51.1634" stroke="#373536" stroke-miterlimit="10"/>
<path d="M1.06093 1.03046L48.2798 51" stroke="#373536" stroke-miterlimit="10"/>
<path d="M1.06093 1.03046L51 43.5706" stroke="#373536" stroke-miterlimit="10"/>
<path d="M1.06093 1.03046L51 35.0055" stroke="#373536" stroke-miterlimit="10"/>
<path d="M1.06093 1.03046L51 27.6205" stroke="#373536" stroke-miterlimit="10"/>
<path d="M1.06093 1.03046L51 21.0388" stroke="#373536" stroke-miterlimit="10"/>
<path d="M1.06093 1.03046L51 15.0083" stroke="#373536" stroke-miterlimit="10"/>
<path d="M1.06093 1.03046L51 9.33518" stroke="#373536" stroke-miterlimit="10"/>
<path d="M1.06093 1.03046L51 3.86149" stroke="#373536" stroke-miterlimit="10"/>
<path d="M64 41.41V11.04H80.03L93.91 28.63H93.95V11.04H106.6V41.41H90.57L76.69 23.49H76.65V41.41H64Z" fill="#141A1D"/>
<path d="M132.74 42.46C128.18 42.46 124.19 41.79 120.76 40.46C117.33 39.12 114.67 37.23 112.79 34.77C110.91 32.31 109.96 29.46 109.96 26.23C109.96 23 110.9 20.15 112.79 17.69C114.67 15.23 117.33 13.33 120.76 12C124.19 10.67 128.18 10 132.74 10C137.3 10 141.29 10.67 144.72 12C148.15 13.34 150.81 15.23 152.69 17.69C154.57 20.15 155.52 23 155.52 26.23C155.52 29.46 154.58 32.31 152.69 34.77C150.81 37.23 148.15 39.13 144.72 40.46C141.29 41.79 137.3 42.46 132.74 42.46ZM132.74 33.18C134.6 33.18 136.23 32.89 137.63 32.32C139.04 31.74 140.12 30.94 140.88 29.89C141.64 28.85 142.02 27.63 142.02 26.22C142.02 24.81 141.64 23.59 140.88 22.55C140.12 21.51 139.04 20.7 137.63 20.13C136.22 19.55 134.59 19.27 132.74 19.27C130.89 19.27 129.25 19.56 127.85 20.13C126.44 20.71 125.36 21.52 124.6 22.55C123.84 23.59 123.46 24.81 123.46 26.22C123.46 27.63 123.84 28.85 124.6 29.89C125.36 30.93 126.44 31.74 127.85 32.32C129.26 32.9 130.89 33.18 132.74 33.18Z" fill="#141A1D"/>
<path d="M158.89 41.41V11.04H185.84C188.45 11.04 190.68 11.36 192.5 12.01C194.33 12.66 195.71 13.61 196.65 14.86C197.59 16.11 198.06 17.64 198.06 19.44C198.06 20.45 197.86 21.38 197.47 22.22C197.08 23.06 196.51 23.81 195.76 24.46C195.01 25.11 194.11 25.61 193.04 25.98V26.06C194.92 26.59 196.37 27.47 197.38 28.7C198.39 29.92 198.9 31.41 198.9 33.15C198.9 34.89 198.44 36.43 197.51 37.66C196.58 38.9 195.23 39.83 193.46 40.46C191.69 41.09 189.52 41.41 186.96 41.41H158.87H158.89ZM181.88 34.45C182.64 34.45 183.29 34.35 183.82 34.16C184.35 33.96 184.75 33.67 185.02 33.27C185.29 32.88 185.42 32.41 185.42 31.88C185.42 31.01 185.11 30.34 184.49 29.88C183.87 29.42 183 29.18 181.88 29.18H172.35V34.45H181.88ZM181.08 23.06C181.81 23.06 182.44 22.96 182.98 22.76C183.51 22.56 183.91 22.28 184.18 21.9C184.45 21.52 184.58 21.06 184.58 20.53C184.58 19.72 184.28 19.09 183.67 18.65C183.07 18.21 182.2 18 181.08 18H172.39V23.06H181.08Z" fill="#141A1D"/>
<path d="M198.66 41.41L213.51 11.04H229.11L243.49 41.41H229.53L227.72 36.77H214.39L212.58 41.41H198.66ZM216.67 29.6H225.44L221.14 19.01H221.06L216.67 29.6Z" fill="#141A1D"/>
<path d="M245.6 41.41V11.04H259.1V20.57L259.18 20.61L269.64 11.04H286.21L272.63 23.06L286.21 41.41H270.06L263.35 30.87L259.09 34.67V41.42H245.59L245.6 41.41Z" fill="#141A1D"/>
</svg>
